<?xml version="1.0" encoding="UTF-8"?>
<svg xmlns="http://www.w3.org/2000/svg" xmlns:xlink="http://www.w3.org/1999/xlink" width="300px" height="336px" viewBox="0 0 300 336" version="1.1">
<defs>
<linearGradient id="linear0" gradientUnits="userSpaceOnUse" x1="616.06" y1="0.92" x2="616.06" y2="145.41" gradientTransform="matrix(0.435493,0,0,0.434749,0.0142,0)">
<stop offset="0" style="stop-color:rgb(100%,83.921569%,7.058824%);stop-opacity:1;"/>
<stop offset="1" style="stop-color:rgb(96.078431%,56.470588%,11.764706%);stop-opacity:1;"/>
</linearGradient>
<linearGradient id="linear1" gradientUnits="userSpaceOnUse" x1="253.85" y1="0.92" x2="253.85" y2="145.41" gradientTransform="matrix(0.435493,0,0,0.434749,0.0142,0)">
<stop offset="0" style="stop-color:rgb(100%,83.921569%,7.058824%);stop-opacity:1;"/>
<stop offset="1" style="stop-color:rgb(96.078431%,56.470588%,11.764706%);stop-opacity:1;"/>
</linearGradient>
<linearGradient id="linear2" gradientUnits="userSpaceOnUse" x1="72.75" y1="314.61" x2="72.75" y2="459.09" gradientTransform="matrix(0.435493,0,0,0.434749,0.0142,0)">
<stop offset="0" style="stop-color:rgb(100%,83.921569%,7.058824%);stop-opacity:1;"/>
<stop offset="1" style="stop-color:rgb(96.078431%,56.470588%,11.764706%);stop-opacity:1;"/>
</linearGradient>
<linearGradient id="linear3" gradientUnits="userSpaceOnUse" x1="253.85" y1="628.29" x2="253.85" y2="772.77" gradientTransform="matrix(0.435493,0,0,0.434749,0.0142,0)">
<stop offset="0" style="stop-color:rgb(100%,83.921569%,7.058824%);stop-opacity:1;"/>
<stop offset="1" style="stop-color:rgb(96.078431%,56.470588%,11.764706%);stop-opacity:1;"/>
</linearGradient>
<linearGradient id="linear4" gradientUnits="userSpaceOnUse" x1="616.06" y1="628.29" x2="616.06" y2="772.77" gradientTransform="matrix(0.435493,0,0,0.434749,0.0142,0)">
<stop offset="0" style="stop-color:rgb(100%,83.921569%,7.058824%);stop-opacity:1;"/>
<stop offset="1" style="stop-color:rgb(96.078431%,56.470588%,11.764706%);stop-opacity:1;"/>
</linearGradient>
</defs>
<g id="surface1">
<path style=" stroke:none;fill-rule:nonzero;fill:rgb(100%,100%,100%);fill-opacity:1;" d="M 47.839844 142.03125 C 47.507812 142.03125 47.171875 141.949219 46.867188 141.773438 C 45.9375 141.238281 45.617188 140.046875 46.15625 139.121094 L 92.730469 58.582031 C 93.265625 57.652344 94.460938 57.335938 95.386719 57.871094 C 96.320312 58.402344 96.636719 59.59375 96.101562 60.519531 L 49.523438 141.058594 C 49.164062 141.679688 48.511719 142.03125 47.839844 142.03125 Z M 47.839844 142.03125 "/>
<path style=" stroke:none;fill-rule:nonzero;fill:rgb(100%,100%,100%);fill-opacity:1;" d="M 224.179688 306.3125 L 154.699219 306.3125 C 153.625 306.3125 152.753906 305.441406 152.753906 304.367188 C 152.753906 303.292969 153.625 302.425781 154.699219 302.425781 L 224.179688 302.425781 C 225.253906 302.425781 226.125 303.292969 226.125 304.367188 C 226.125 305.441406 225.253906 306.3125 224.179688 306.3125 Z M 224.179688 306.3125 "/>
<path style=" stroke:none;fill-rule:nonzero;fill:rgb(100%,100%,100%);fill-opacity:1;" d="M 94.421875 278.394531 C 93.75 278.394531 93.097656 278.046875 92.734375 277.425781 L 46.144531 196.902344 C 45.609375 195.972656 45.929688 194.785156 46.855469 194.25 C 47.789062 193.714844 48.976562 194.03125 49.511719 194.957031 L 96.101562 275.484375 C 96.636719 276.414062 96.320312 277.601562 95.390625 278.136719 C 95.085938 278.3125 94.75 278.394531 94.421875 278.394531 Z M 94.421875 278.394531 "/>
<path style=" stroke:none;fill-rule:nonzero;fill:rgb(100%,100%,100%);fill-opacity:1;" d="M 224.179688 33.574219 L 154.699219 33.574219 C 153.625 33.574219 152.753906 32.707031 152.753906 31.632812 C 152.753906 30.558594 153.625 29.6875 154.699219 29.6875 L 224.179688 29.6875 C 225.253906 29.6875 226.125 30.558594 226.125 31.632812 C 226.125 32.707031 225.253906 33.574219 224.179688 33.574219 Z M 224.179688 33.574219 "/>
<path style=" stroke:none;fill-rule:nonzero;fill:rgb(100%,100%,100%);fill-opacity:1;" d="M 189.433594 89.265625 C 145.882812 89.265625 110.578125 124.523438 110.578125 167.996094 C 110.578125 211.464844 145.882812 246.722656 189.433594 246.722656 C 232.980469 246.722656 268.296875 211.480469 268.296875 167.996094 C 268.296875 124.511719 232.988281 89.265625 189.433594 89.265625 Z M 218.925781 169.726562 C 205.882812 174.136719 195.582031 184.425781 191.160156 197.445312 C 190.597656 199.097656 188.273438 199.097656 187.714844 197.445312 C 183.296875 184.425781 172.980469 174.136719 159.949219 169.726562 C 158.292969 169.164062 158.292969 166.84375 159.949219 166.285156 C 172.980469 161.875 183.296875 151.574219 187.714844 138.566406 C 188.277344 136.914062 190.601562 136.914062 191.160156 138.566406 C 195.582031 151.574219 205.882812 161.875 218.925781 166.285156 C 220.582031 166.847656 220.582031 169.167969 218.925781 169.726562 Z M 218.925781 169.726562 "/>
<path style=" stroke:none;fill-rule:nonzero;fill:url(#linear0);" d="M 298.699219 33.402344 C 285.261719 37.945312 274.632812 48.554688 270.082031 61.972656 C 269.5 63.683594 267.105469 63.683594 266.523438 61.972656 C 261.964844 48.558594 251.335938 37.945312 237.902344 33.402344 C 236.191406 32.824219 236.191406 30.433594 237.902344 29.851562 C 251.335938 25.296875 261.964844 14.691406 266.523438 1.277344 C 267.101562 -0.429688 269.496094 -0.429688 270.082031 1.277344 C 274.632812 14.691406 285.261719 25.296875 298.699219 29.851562 C 300.414062 30.429688 300.414062 32.820312 298.699219 33.402344 Z M 298.699219 33.402344 "/>
<path style=" stroke:none;fill-rule:nonzero;fill:url(#linear1);" d="M 140.960938 33.402344 C 127.523438 37.945312 116.890625 48.554688 112.339844 61.972656 C 111.761719 63.683594 109.367188 63.683594 108.78125 61.972656 C 104.222656 48.558594 93.597656 37.945312 80.164062 33.402344 C 78.449219 32.824219 78.449219 30.433594 80.164062 29.851562 C 93.597656 25.296875 104.222656 14.691406 108.78125 1.277344 C 109.363281 -0.429688 111.757812 -0.429688 112.339844 1.277344 C 116.890625 14.691406 127.523438 25.296875 140.960938 29.851562 C 142.671875 30.429688 142.671875 32.820312 140.960938 33.402344 Z M 140.960938 33.402344 "/>
<path style=" stroke:none;fill-rule:nonzero;fill:url(#linear2);" d="M 62.09375 169.777344 C 48.65625 174.320312 38.023438 184.929688 33.472656 198.351562 C 32.894531 200.058594 30.5 200.058594 29.914062 198.351562 C 25.355469 184.933594 14.730469 174.320312 1.292969 169.777344 C -0.417969 169.199219 -0.417969 166.808594 1.292969 166.226562 C 14.730469 161.675781 25.355469 151.066406 29.914062 137.65625 C 30.496094 135.945312 32.890625 135.945312 33.472656 137.65625 C 38.023438 151.066406 48.65625 161.675781 62.09375 166.226562 C 63.804688 166.804688 63.804688 169.195312 62.09375 169.777344 Z M 62.09375 169.777344 "/>
<path style=" stroke:none;fill-rule:nonzero;fill:url(#linear3);" d="M 140.960938 306.148438 C 127.523438 310.691406 116.890625 321.300781 112.339844 334.722656 C 111.761719 336.429688 109.367188 336.429688 108.78125 334.722656 C 104.222656 321.304688 93.597656 310.691406 80.164062 306.148438 C 78.449219 305.570312 78.449219 303.179688 80.164062 302.597656 C 93.597656 298.046875 104.222656 287.4375 108.78125 274.027344 C 109.363281 272.316406 111.757812 272.316406 112.339844 274.027344 C 116.890625 287.4375 127.523438 298.046875 140.960938 302.597656 C 142.671875 303.175781 142.671875 305.566406 140.960938 306.148438 Z M 140.960938 306.148438 "/>
<path style=" stroke:none;fill-rule:nonzero;fill:url(#linear4);" d="M 298.699219 306.148438 C 285.261719 310.691406 274.632812 321.300781 270.082031 334.722656 C 269.5 336.429688 267.105469 336.429688 266.523438 334.722656 C 261.964844 321.304688 251.335938 310.691406 237.902344 306.148438 C 236.191406 305.570312 236.191406 303.179688 237.902344 302.597656 C 251.335938 298.046875 261.964844 287.4375 266.523438 274.027344 C 267.101562 272.316406 269.496094 272.316406 270.082031 274.027344 C 274.632812 287.4375 285.261719 298.046875 298.699219 302.597656 C 300.414062 303.175781 300.414062 305.566406 298.699219 306.148438 Z M 298.699219 306.148438 "/>
</g>
</svg>
